<?xml version="1.0" encoding="UTF-8"?>
<svg xmlns="http://www.w3.org/2000/svg" xmlns:xlink="http://www.w3.org/1999/xlink" width="917pt" height="742pt" viewBox="0 0 917 742" version="1.1">
<defs>
<filter id="alpha" filterUnits="objectBoundingBox" x="0%" y="0%" width="100%" height="100%">
  <feColorMatrix type="matrix" in="SourceGraphic" values="0 0 0 0 1 0 0 0 0 1 0 0 0 0 1 0 0 0 1 0"/>
</filter>
<mask id="mask0">
  <g filter="url(#alpha)">
<rect x="0" y="0" width="917" height="742" style="fill:rgb(0%,0%,0%);fill-opacity:0.2;stroke:none;"/>
  </g>
</mask>
<clipPath id="clip1">
  <rect width="918" height="742"/>
</clipPath>
<g id="surface6" clip-path="url(#clip1)">
<path style=" stroke:none;fill-rule:nonzero;fill:rgb(0%,0%,0%);fill-opacity:1;" d="M 742.9375 246.15625 L 678.554688 246.15625 L 710.160156 200.214844 L 712.433594 196.90625 L 713.570312 195.253906 L 716.4375 200.214844 Z M 742.9375 246.15625 "/>
</g>
</defs>
<g id="surface1">
<path style=" stroke:none;fill-rule:nonzero;fill:rgb(24.705882%,23.921569%,33.72549%);fill-opacity:1;" d="M 610.726562 741.40625 L 610.535156 741.390625 L 306.414062 713.117188 L 29.871094 738.828125 C 14.835938 740.222656 1.515625 729.160156 0.117188 714.113281 C 0.0390625 713.273438 0 712.429688 0 711.582031 L 0 53.421875 C -0.0585938 39.269531 10.726562 27.429688 24.8125 26.179688 L 306.414062 0 L 306.609375 0.0195312 L 610.726562 28.289062 L 887.273438 2.582031 C 902.308594 1.183594 915.628906 12.25 917.027344 27.292969 C 917.105469 28.136719 917.144531 28.980469 917.144531 29.824219 L 917.144531 687.984375 C 917.199219 702.140625 906.417969 713.976562 892.328125 715.230469 Z M 610.726562 741.40625 "/>
<path style=" stroke:none;fill-rule:nonzero;fill:rgb(100%,100%,100%);fill-opacity:1;" d="M 423.933594 243.488281 C 365.0625 200.582031 303.121094 159.898438 239.847656 122.574219 L 236.671875 120.699219 L 236.671875 247.296875 L 429.160156 247.296875 Z M 240.878906 243.085938 L 240.878906 128.078125 C 301.074219 163.710938 360.015625 202.371094 416.222656 243.085938 Z M 721.863281 503.65625 C 696.40625 477.171875 670.285156 451.285156 643.507812 426.003906 C 636.125 419.027344 628.699219 412.109375 621.226562 405.242188 C 575.617188 363.316406 528.507812 323.445312 479.898438 285.621094 L 479.332031 285.179688 L 236.671875 285.179688 L 236.671875 507.226562 L 725.292969 507.226562 Z M 240.878906 503.015625 L 240.878906 289.390625 L 477.890625 289.390625 C 524.761719 325.875 570.363281 364.402344 614.695312 404.96875 C 622.390625 412.007812 630.039062 419.105469 637.628906 426.257812 C 664.171875 451.21875 690.09375 476.804688 715.398438 503.015625 Z M 721.863281 503.65625 C 696.40625 477.171875 670.285156 451.285156 643.507812 426.003906 C 636.125 419.027344 628.699219 412.109375 621.226562 405.242188 C 575.617188 363.316406 528.507812 323.445312 479.898438 285.621094 L 479.332031 285.179688 L 236.671875 285.179688 L 236.671875 507.226562 L 725.292969 507.226562 Z M 240.878906 503.015625 L 240.878906 289.390625 L 477.890625 289.390625 C 524.761719 325.875 570.363281 364.402344 614.695312 404.96875 C 622.390625 412.007812 630.039062 419.105469 637.628906 426.257812 C 664.171875 451.21875 690.09375 476.804688 715.398438 503.015625 Z M 423.933594 243.488281 C 365.0625 200.582031 303.121094 159.898438 239.847656 122.574219 L 236.671875 120.699219 L 236.671875 247.296875 L 429.160156 247.296875 Z M 240.878906 243.085938 L 240.878906 128.078125 C 301.074219 163.710938 360.015625 202.371094 416.222656 243.085938 Z M 423.933594 243.488281 C 365.0625 200.582031 303.121094 159.898438 239.847656 122.574219 L 236.671875 120.699219 L 236.671875 247.296875 L 429.160156 247.296875 Z M 240.878906 243.085938 L 240.878906 128.078125 C 301.074219 163.710938 360.015625 202.371094 416.222656 243.085938 Z M 721.863281 503.65625 C 696.40625 477.171875 670.285156 451.285156 643.507812 426.003906 C 636.125 419.027344 628.699219 412.109375 621.226562 405.242188 C 575.617188 363.316406 528.507812 323.445312 479.898438 285.621094 L 479.332031 285.179688 L 236.671875 285.179688 L 236.671875 507.226562 L 725.292969 507.226562 Z M 240.878906 503.015625 L 240.878906 289.390625 L 477.890625 289.390625 C 524.761719 325.875 570.363281 364.402344 614.695312 404.96875 C 622.390625 412.007812 630.039062 419.105469 637.628906 426.257812 C 664.171875 451.21875 690.09375 476.804688 715.398438 503.015625 Z M 28.472656 545.109375 L 28.472656 549.320312 L 194.605469 549.320312 L 194.605469 610.355469 L 28.472656 610.355469 L 28.472656 614.5625 L 198.8125 614.5625 L 198.8125 545.109375 Z M 236.671875 652.449219 L 236.671875 695.101562 L 240.878906 694.710938 L 240.878906 656.65625 L 888.671875 656.65625 L 888.671875 652.449219 Z M 888.671875 549.320312 L 888.671875 545.109375 L 236.671875 545.109375 L 236.671875 614.5625 L 888.671875 614.5625 L 888.671875 610.355469 L 240.878906 610.355469 L 240.878906 549.320312 Z M 495.839844 243.085938 C 415.140625 180.792969 329.917969 124.601562 240.878906 74.976562 L 240.878906 32.355469 L 236.671875 32.746094 L 236.671875 75.695312 L 239.910156 79.257812 C 328.589844 128.75 413.46875 184.769531 493.84375 246.855469 L 494.410156 247.296875 L 888.671875 247.296875 L 888.671875 243.085938 Z M 194.605469 243.085938 L 28.472656 243.085938 L 28.472656 247.296875 L 198.8125 247.296875 L 198.8125 36.261719 L 194.605469 36.648438 Z M 888.671875 285.179688 L 542.070312 285.179688 L 546.601562 288.90625 C 589.277344 324.042969 631.175781 361.3125 672.300781 400.707031 C 678.148438 406.304688 683.976562 411.949219 689.78125 417.640625 C 718.679688 445.894531 747.011719 475.074219 774.78125 505.171875 L 778.25 507.226562 L 888.671875 507.226562 L 888.671875 503.015625 L 778.515625 503.015625 C 751.046875 473.214844 722.980469 444.273438 694.324219 416.199219 C 688.589844 410.578125 682.839844 404.996094 677.066406 399.453125 C 636.832031 360.824219 595.738281 324.136719 553.785156 289.390625 L 888.671875 289.390625 Z M 28.472656 652.449219 L 28.472656 656.65625 L 194.605469 656.65625 L 194.605469 699.003906 L 198.8125 698.613281 L 198.8125 652.449219 Z M 28.472656 285.179688 L 28.472656 289.390625 L 194.605469 289.390625 L 194.605469 503.015625 L 28.472656 503.015625 L 28.472656 507.226562 L 198.8125 507.226562 L 198.8125 285.179688 Z M 423.933594 243.488281 C 365.0625 200.582031 303.121094 159.898438 239.847656 122.574219 L 236.671875 120.699219 L 236.671875 247.296875 L 429.160156 247.296875 Z M 240.878906 243.085938 L 240.878906 128.078125 C 301.070312 163.710938 360.015625 202.371094 416.222656 243.085938 Z M 721.863281 503.65625 C 696.40625 477.171875 670.285156 451.285156 643.507812 426.003906 C 636.125 419.027344 628.699219 412.109375 621.226562 405.242188 C 575.617188 363.316406 528.507812 323.445312 479.898438 285.621094 L 479.332031 285.179688 L 236.671875 285.179688 L 236.671875 507.226562 L 725.292969 507.226562 Z M 240.878906 503.015625 L 240.878906 289.390625 L 477.890625 289.390625 C 524.761719 325.875 570.363281 364.402344 614.695312 404.96875 C 622.390625 412.007812 630.039062 419.105469 637.628906 426.257812 C 664.171875 451.21875 690.09375 476.804688 715.398438 503.015625 Z M 423.933594 243.488281 C 365.0625 200.582031 303.121094 159.898438 239.847656 122.574219 L 236.671875 120.699219 L 236.671875 247.296875 L 429.160156 247.296875 Z M 240.878906 243.085938 L 240.878906 128.078125 C 301.074219 163.710938 360.015625 202.371094 416.222656 243.085938 Z M 721.863281 503.65625 C 696.40625 477.171875 670.285156 451.285156 643.507812 426.003906 C 636.125 419.027344 628.699219 412.109375 621.226562 405.242188 C 575.617188 363.316406 528.507812 323.445312 479.898438 285.621094 L 479.332031 285.179688 L 236.671875 285.179688 L 236.671875 507.226562 L 725.292969 507.226562 Z M 240.878906 503.015625 L 240.878906 289.390625 L 477.890625 289.390625 C 524.761719 325.875 570.363281 364.402344 614.695312 404.96875 C 622.390625 412.007812 630.039062 419.105469 637.628906 426.257812 C 664.171875 451.21875 690.09375 476.804688 715.398438 503.015625 Z M 240.878906 503.015625 "/>
<path style=" stroke:none;fill-rule:nonzero;fill:rgb(42.352941%,38.823529%,100%);fill-opacity:1;" d="M 469.738281 277.003906 C 469.738281 330.304688 373.289062 449.050781 373.289062 449.050781 C 373.289062 449.050781 276.84375 330.304688 276.84375 277.003906 C 276.84375 223.699219 320.023438 180.488281 373.289062 180.488281 C 426.558594 180.488281 469.738281 223.699219 469.738281 277.003906 Z M 469.738281 277.003906 "/>
<path style=" stroke:none;fill-rule:nonzero;fill:rgb(100%,100%,100%);fill-opacity:1;" d="M 417.382812 272.804688 C 417.382812 297.175781 397.640625 316.925781 373.292969 316.925781 C 348.941406 316.925781 329.203125 297.175781 329.203125 272.804688 C 329.203125 248.4375 348.941406 228.6875 373.292969 228.6875 C 397.648438 228.675781 417.394531 248.433594 417.382812 272.804688 Z M 417.382812 272.804688 "/>
<path style=" stroke:none;fill-rule:nonzero;fill:rgb(42.352941%,38.823529%,100%);fill-opacity:1;" d="M 399.289062 492.691406 C 399.289062 507.058594 387.648438 518.707031 373.289062 518.707031 C 358.929688 518.707031 347.292969 507.058594 347.292969 492.691406 C 347.292969 478.324219 358.929688 466.675781 373.289062 466.675781 C 387.648438 466.675781 399.289062 478.324219 399.289062 492.691406 Z M 399.289062 492.691406 "/>
<path style=" stroke:none;fill-rule:nonzero;fill:rgb(100%,39.607843%,51.764706%);fill-opacity:1;" d="M 660.835938 127.617188 C 660.835938 148.863281 643.625 166.085938 622.394531 166.085938 C 601.164062 166.085938 583.957031 148.863281 583.957031 127.617188 C 583.957031 106.375 601.164062 89.152344 622.394531 89.152344 C 643.625 89.152344 660.835938 106.375 660.835938 127.617188 Z M 660.835938 127.617188 "/>
<path style=" stroke:none;fill-rule:nonzero;fill:rgb(100%,100%,100%);fill-opacity:1;" d="M 742.9375 246.15625 L 554.363281 246.15625 C 554.128906 246.160156 553.894531 246.140625 553.660156 246.101562 L 642.84375 91.511719 C 643.953125 89.550781 646.03125 88.339844 648.28125 88.339844 C 650.53125 88.339844 652.609375 89.550781 653.714844 91.511719 L 713.570312 195.253906 L 716.4375 200.21875 Z M 742.9375 246.15625 "/>
<use xlink:href="#surface6" mask="url(#mask0)"/>
<path style=" stroke:none;fill-rule:nonzero;fill:rgb(100%,100%,100%);fill-opacity:1;" d="M 847.929688 246.15625 L 684.832031 246.15625 L 716.4375 200.21875 L 718.710938 196.90625 L 759.898438 137.039062 C 762.597656 133.117188 769.09375 132.871094 772.265625 136.300781 C 772.480469 136.53125 772.679688 136.78125 772.859375 137.039062 Z M 847.929688 246.15625 "/>
<path style=" stroke:none;fill-rule:nonzero;fill:rgb(100%,100%,100%);fill-opacity:1;" d="M 879.488281 444.609375 C 879.488281 455.359375 870.777344 464.078125 860.035156 464.078125 C 849.289062 464.078125 840.578125 455.359375 840.578125 444.609375 C 840.578125 433.855469 849.289062 425.140625 860.035156 425.140625 C 870.777344 425.140625 879.488281 433.855469 879.488281 444.609375 Z M 879.488281 444.609375 "/>
<path style=" stroke:none;fill-rule:nonzero;fill:rgb(79.607843%,79.607843%,79.607843%);fill-opacity:1;" d="M 861.910156 503.246094 L 857.925781 503.246094 L 859.742188 441.675781 Z M 861.910156 503.246094 "/>
<path style=" stroke:none;fill-rule:nonzero;fill:rgb(79.607843%,79.607843%,79.607843%);fill-opacity:1;" d="M 860.09375 453.34375 L 864.371094 447.421875 L 860.035156 454.8125 L 859.566406 453.992188 Z M 860.09375 453.34375 "/>
<path style=" stroke:none;fill-rule:nonzero;fill:rgb(79.607843%,79.607843%,79.607843%);fill-opacity:1;" d="M 859.625 459.324219 L 855.347656 453.402344 L 859.683594 460.792969 L 860.152344 459.972656 Z M 859.625 459.324219 "/>
<path style=" stroke:none;fill-rule:nonzero;fill:rgb(100%,100%,100%);fill-opacity:1;" d="M 833.449219 416.640625 C 833.449219 432.523438 820.585938 445.394531 804.714844 445.394531 C 788.847656 445.394531 775.984375 432.523438 775.984375 416.640625 C 775.984375 400.761719 788.847656 387.890625 804.714844 387.890625 C 820.585938 387.890625 833.449219 400.761719 833.449219 416.640625 Z M 833.449219 416.640625 "/>
<path style=" stroke:none;fill-rule:nonzero;fill:rgb(79.607843%,79.607843%,79.607843%);fill-opacity:1;" d="M 807.484375 503.246094 L 801.601562 503.246094 L 804.285156 412.3125 Z M 807.484375 503.246094 "/>
<path style=" stroke:none;fill-rule:nonzero;fill:rgb(79.607843%,79.607843%,79.607843%);fill-opacity:1;" d="M 804.804688 429.546875 L 811.121094 420.800781 L 804.714844 431.710938 L 804.023438 430.5 Z M 804.804688 429.546875 "/>
<path style=" stroke:none;fill-rule:nonzero;fill:rgb(79.607843%,79.607843%,79.607843%);fill-opacity:1;" d="M 804.109375 438.378906 L 797.792969 429.632812 L 804.199219 440.542969 L 804.890625 439.332031 Z M 804.109375 438.378906 "/>
<path style=" stroke:none;fill-rule:nonzero;fill:rgb(100%,100%,100%);fill-opacity:1;" d="M 157.082031 444.609375 C 157.082031 455.359375 148.371094 464.078125 137.625 464.078125 C 126.882812 464.078125 118.171875 455.359375 118.171875 444.609375 C 118.171875 433.855469 126.882812 425.140625 137.625 425.140625 C 148.371094 425.140625 157.082031 433.855469 157.082031 444.609375 Z M 157.082031 444.609375 "/>
<path style=" stroke:none;fill-rule:nonzero;fill:rgb(79.607843%,79.607843%,79.607843%);fill-opacity:1;" d="M 139.503906 503.246094 L 135.519531 503.246094 L 137.332031 441.675781 Z M 139.503906 503.246094 "/>
<path style=" stroke:none;fill-rule:nonzero;fill:rgb(79.607843%,79.607843%,79.607843%);fill-opacity:1;" d="M 137.683594 453.34375 L 141.964844 447.421875 L 137.625 454.8125 L 137.160156 453.992188 Z M 137.683594 453.34375 "/>
<path style=" stroke:none;fill-rule:nonzero;fill:rgb(79.607843%,79.607843%,79.607843%);fill-opacity:1;" d="M 137.214844 459.324219 L 132.9375 453.402344 L 137.273438 460.792969 L 137.742188 459.972656 Z M 137.214844 459.324219 "/>
<path style=" stroke:none;fill-rule:nonzero;fill:rgb(100%,100%,100%);fill-opacity:1;" d="M 111.042969 416.640625 C 111.042969 432.523438 98.175781 445.394531 82.308594 445.394531 C 66.4375 445.394531 53.574219 432.523438 53.574219 416.640625 C 53.574219 400.761719 66.4375 387.890625 82.308594 387.890625 C 98.175781 387.890625 111.042969 400.761719 111.042969 416.640625 Z M 111.042969 416.640625 "/>
<path style=" stroke:none;fill-rule:nonzero;fill:rgb(79.607843%,79.607843%,79.607843%);fill-opacity:1;" d="M 85.078125 503.246094 L 79.191406 503.246094 L 81.875 412.3125 Z M 85.078125 503.246094 "/>
<path style=" stroke:none;fill-rule:nonzero;fill:rgb(79.607843%,79.607843%,79.607843%);fill-opacity:1;" d="M 82.394531 429.546875 L 88.710938 420.800781 L 82.308594 431.710938 L 81.617188 430.5 Z M 82.394531 429.546875 "/>
<path style=" stroke:none;fill-rule:nonzero;fill:rgb(79.607843%,79.607843%,79.607843%);fill-opacity:1;" d="M 81.703125 438.378906 L 75.386719 429.632812 L 81.789062 440.542969 L 82.480469 439.332031 Z M 81.703125 438.378906 "/>
</g>
</svg>
